Coordinates
version=1
nRows=14
nColumns=40
inDegrees=yes

Units are S.I. units (second, meters, Newtons, ...)
If the header above contains a line with 'inDegrees', this indicates whether rotational values are in degrees (yes) or radians (no).

endheader
time	pelvis_tilt	pelvis_list	pelvis_rotation	pelvis_tx	pelvis_ty	pelvis_tz	hip_flexion_r	hip_adduction_r	hip_rotation_r	knee_angle_r	knee_angle_r_beta	ankle_angle_r	subtalar_angle_r	mtp_angle_r	hip_flexion_l	hip_adduction_l	hip_rotation_l	knee_angle_l	knee_angle_l_beta	ankle_angle_l	subtalar_angle_l	mtp_angle_l	lumbar_extension	lumbar_bending	lumbar_rotation	arm_flex_r	arm_add_r	arm_rot_r	elbow_flex_r	pro_sup_r	wrist_flex_r	wrist_dev_r	arm_flex_l	arm_add_l	arm_rot_l	elbow_flex_l	pro_sup_l	wrist_flex_l	wrist_dev_l
      1.10000000	     -6.24923803	     -8.20624233	     89.62749072	      0.09544011	      0.89558601	      0.09341228	     35.25489227	     -3.65119739	      0.45515732	      2.04893291	      0.03576063	      4.93168806	     -0.00000000	     -0.00000000	     -9.29388447	      9.71081120	     11.37270506	     -3.19815145	     -0.05581827	     10.96438358	     -0.00000000	      0.00000000	      2.01366794	     -6.58258887	     -2.93686797	     -0.00000000	      0.00000000	     -0.00000000	      0.00000000	      0.00000000	      0.00000000	      0.00000000	      0.00000000	     -0.00000000	     -0.00000000	      0.00000000	      0.00000000	     -0.00000000	      0.00000000
      1.11000000	     -6.16483379	     -8.25041114	     89.64991933	      0.09625555	      0.89349967	      0.07923316	     35.35418206	     -3.37942330	      0.47611123	      1.76926525	      0.03087950	      4.99404937	      0.00000000	     -0.00000000	    -10.07187991	      9.54932709	     11.39531767	     -2.85532378	     -0.04983480	     11.38340249	     -0.00000000	      0.00000000	      2.19360923	     -6.48574128	     -2.97206821	     -0.00000000	      0.00000000	     -0.00000000	      0.00000000	      0.00000000	      0.00000000	      0.00000000	     -0.00000000	      0.00000000	      0.00000000	      0.00000000	      0.00000000	      0.00000000	      0.00000000
      1.12000000	     -6.18932332	     -8.42141641	     89.64089522	      0.09700997	      0.89147195	      0.06499155	     35.66576687	     -3.20644278	      0.57594790	      2.12501950	      0.03708859	      4.83627404	     -0.00000000	      0.00000000	    -10.61125842	      9.51607266	     11.17206009	     -2.35942774	     -0.04117978	     11.23284512	     -0.00000000	     -0.00000000	      2.56359294	     -6.47880272	     -2.80201598	     -0.00000000	     -0.00000000	     -0.00000000	      0.00000000	      0.00000000	     -0.00000000	      0.00000000	     -0.00000000	     -0.00000000	     -0.00000000	      0.00000000	      0.00000000	      0.00000000	     -0.00000000
      1.13000000	     -5.89648606	     -8.42081039	     89.66579190	      0.09798735	      0.89004536	      0.05064593	     35.85027731	     -2.72989094	      0.51455448	      3.11810029	      0.05442112	      4.27561874	      0.00000000	      0.00000000	    -11.12739236	      9.15037435	     10.98316181	     -1.45932856	     -0.02547009	     11.28858925	      0.00000000	      0.00000000	      2.66218170	     -6.10964463	     -2.75380806	      0.00000000	      0.00000000	      0.00000000	      0.00000000	      0.00000000	      0.00000000	      0.00000000	      0.00000000	      0.00000000	      0.00000000	      0.00000000	      0.00000000	      0.00000000	      0.00000000
      1.14000000	     -5.57702547	     -8.28910562	     89.69259757	      0.09898154	      0.88912897	      0.03594560	     35.84594534	     -2.29224147	     -0.33348777	      4.34043679	      0.07575491	      3.17239993	      0.00000000	      0.00000000	    -11.69799206	      8.75123145	     10.37647455	     -0.40980915	     -0.00715252	     11.66318443	      0.00000000	      0.00000000	      2.66942973	     -5.72611766	     -2.64667772	      0.00000000	      0.00000000	      0.00000000	      0.00000000	      0.00000000	      0.00000000	      0.00000000	      0.00000000	      0.00000000	      0.00000000	      0.00000000	      0.00000000	      0.00000000	      0.00000000
      1.15000000	     -5.29826605	     -8.31652665	     89.70468654	      0.09999614	      0.88834770	      0.02129912	     35.94083555	     -1.86395508	     -0.28602563	      5.70415412	      0.09955627	      2.22591264	      0.00000000	     -0.00000000	    -11.98811673	      8.38965877	     10.08099971	      0.78941591	      0.01377791	     11.31086970	      0.00000000	     -0.00000000	      2.85823133	     -5.38302835	     -2.53129223	      0.00000000	     -0.00000000	      0.00000000	      0.00000000	      0.00000000	     -0.00000000	      0.00000000	      0.00000000	      0.00000000	     -0.00000000	      0.00000000	      0.00000000	     -0.00000000	      0.00000000
      1.16000000	     -4.96350414	     -8.28949043	     89.72519510	      0.10103817	      0.88799113	      0.00652530	     36.02252555	     -1.47819860	     -1.12851930	      7.29729744	      0.12736187	      0.27788007	      0.00000000	      0.00000000	    -12.00131907	      7.97197120	      8.96640088	      2.54766090	      0.04446507	     10.96128054	      0.00000000	      0.00000000	      2.97963195	     -4.97611866	     -2.42291412	      0.00000000	      0.00000000	      0.00000000	      0.00000000	      0.00000000	      0.00000000	      0.00000000	      0.00000000	      0.00000000	      0.00000000	      0.00000000	      0.00000000	      0.00000000	      0.00000000
      1.17000000	     -4.61920987	     -8.31156148	     89.74030477	      0.10214535	      0.88796570	     -0.00828177	     36.02831065	     -1.07426713	     -1.44737653	      8.77598889	      0.15316990	     -1.43396962	      0.00000000	      0.00000000	    -11.79567695	      7.51681455	      7.95620701	      4.54054416	      0.07924745	     10.20824547	      0.00000000	      0.00000000	      3.16388724	     -4.56462985	     -2.28697640	      0.00000000	      0.00000000	      0.00000000	      0.00000000	      0.00000000	      0.00000000	      0.00000000	      0.00000000	      0.00000000	      0.00000000	      0.00000000	      0.00000000	      0.00000000	      0.00000000
      1.18000000	     -4.24934852	     -8.31494340	     89.75568218	      0.10331103	      0.88836949	     -0.02314145	     35.93179558	     -0.67854684	     -1.77666123	     10.17595663	      0.17760395	     -3.06436403	      0.00000000	      0.00000000	    -11.37984494	      7.00050956	      6.81777239	      6.86962362	      0.11989755	      9.07699644	      0.00000000	      0.00000000	      3.33509093	     -4.13187000	     -2.16919857	      0.00000000	      0.00000000	      0.00000000	      0.00000000	      0.00000000	      0.00000000	      0.00000000	      0.00000000	      0.00000000	      0.00000000	      0.00000000	      0.00000000	      0.00000000	      0.00000000
      1.19000000	     -3.79784507	     -8.37575016	     89.76531443	      0.10456040	      0.88910216	     -0.03801359	     35.78394391	     -0.19995405	     -1.98205364	     11.42703811	      0.19943944	     -4.47830886	      0.00000000	      0.00000000	    -10.65885788	      6.34383113	      5.48681344	      9.53889329	      0.16648509	      7.60890562	      0.00000000	      0.00000000	      3.59113800	     -3.60288591	     -1.99793545	      0.00000000	      0.00000000	      0.00000000	      0.00000000	      0.00000000	      0.00000000	      0.00000000	      0.00000000	      0.00000000	      0.00000000	      0.00000000	      0.00000000	      0.00000000	      0.00000000
      1.20000000	     -3.37331980	     -8.35570420	     89.77522817	      0.10588178	      0.89033778	     -0.05280750	     35.47211943	      0.23372172	     -2.19933102	     12.57693738	      0.21950897	     -5.45560723	      0.00000000	      0.00000000	     -9.79438271	      5.65189567	      4.20054495	     12.50679624	      0.21828477	      5.68339331	      0.00000000	      0.00000000	      3.71678183	     -3.13169931	     -1.81980524	      0.00000000	      0.00000000	      0.00000000	      0.00000000	      0.00000000	      0.00000000	      0.00000000	      0.00000000	      0.00000000	      0.00000000	      0.00000000	      0.00000000	      0.00000000	      0.00000000
      1.21000000	     -2.86862880	     -8.37597815	     89.78361296	      0.10730208	      0.89186415	     -0.06757384	     35.08731614	      0.74651533	     -2.43782264	     13.56577705	      0.23676748	     -6.05144313	     -0.00000000	      0.00000000	     -8.64936853	      4.79713825	      2.85586914	     15.79473536	      0.27567014	      3.34314856	      0.00000000	     -0.00000000	      3.90691011	     -2.56431935	     -1.64481990	     -0.00000000	      0.00000000	     -0.00000000	      0.00000000	      0.00000000	     -0.00000000	     -0.00000000	      0.00000000	     -0.00000000	     -0.00000000	      0.00000000	      0.00000000	     -0.00000000	     -0.00000000
      1.22000000	     -2.36619198	     -8.44186522	     89.79010797	      0.10880457	      0.89364822	     -0.08217946	     34.62501635	      1.27236329	     -2.60295009	     14.34546900	      0.25037567	     -6.23964943	      0.00000000	      0.00000000	     -7.20982002	      3.87206022	      1.63257496	     19.40986748	      0.33876609	      0.69515823	      0.00000000	      0.00000000	      4.13389316	     -2.02896146	     -1.42850693	      0.00000000	      0.00000000	      0.00000000	      0.00000000	      0.00000000	      0.00000000	      0.00000000	      0.00000000	      0.00000000	      0.00000000	      0.00000000	      0.00000000	      0.00000000	      0.00000000
      1.23000000	     -1.82506876	     -8.37167689	     89.79735030	      0.11037304	      0.89587878	     -0.09672454	     33.91265759	      1.82644014	     -2.95473484	     14.98288738	      0.26150072	     -6.01387931	      0.00000000	      0.00000000	     -5.77448947	      2.84357657	      0.57384524	     23.14620225	      0.40397744	     -2.34018712	      0.00000000	      0.00000000	      4.18582172	     -1.45165114	     -1.25753647	      0.00000000	      0.00000000	      0.00000000	      0.00000000	      0.00000000	      0.00000000	      0.00000000	      0.00000000	      0.00000000	      0.00000000	      0.00000000	      0.00000000	      0.00000000	      0.00000000
